<svg width="21" height="20" viewBox="0 0 21 20" fill="none" xmlns="http://www.w3.org/2000/svg">
<path d="M10.4999 12.5002L12.9999 10.0002M12.9999 10.0002L10.4999 7.50016M12.9999 10.0002H3.83325M3.83325 6.04018V6.00033C3.83325 5.0669 3.83325 4.59985 4.01491 4.24333C4.1747 3.92972 4.42948 3.67494 4.74308 3.51515C5.0996 3.3335 5.56666 3.3335 6.50008 3.3335H14.5001C15.4335 3.3335 15.8996 3.3335 16.2561 3.51515C16.5697 3.67494 16.8253 3.92972 16.9851 4.24333C17.1666 4.5995 17.1666 5.06599 17.1666 5.99759V14.0031C17.1666 14.9347 17.1666 15.4006 16.9851 15.7567C16.8253 16.0703 16.5697 16.3256 16.2561 16.4854C15.8999 16.6668 15.4341 16.6668 14.5025 16.6668H6.49734C5.56575 16.6668 5.09925 16.6668 4.74308 16.4854C4.42948 16.3256 4.1747 16.0701 4.01491 15.7565C3.83325 15.4 3.83325 14.9336 3.83325 14.0002V13.9585" stroke="#6A788E" stroke-width="1.5" stroke-linecap="round" stroke-linejoin="round"/>
</svg>
