<svg width="24" height="25" viewBox="0 0 24 25" fill="none" xmlns="http://www.w3.org/2000/svg">
<rect y="0.5" width="24" height="24" rx="12" fill="#FFBFBF"/>
<rect x="0.5" y="1" width="23" height="23" rx="11.5" stroke="#EF4D4D" stroke-opacity="0.5"/>
<path d="M17.3337 15.8334L13.4362 11.8751C13.3662 11.804 13.3308 11.7684 13.2995 11.7403C12.7933 11.2872 12.0277 11.2872 11.5215 11.7403C11.4902 11.7684 11.4545 11.8039 11.3845 11.8751C11.3144 11.9462 11.2794 11.9818 11.2481 12.0098C10.7418 12.463 9.976 12.463 9.46976 12.0098C9.43842 11.9818 9.4034 11.9462 9.33335 11.8751L6.66669 9.16675M17.3337 15.8334L17.3334 11.8334M17.3337 15.8334H13.3334" stroke="#EF4D4D" stroke-width="2" stroke-linecap="round" stroke-linejoin="round"/>
</svg>
