<svg width="24" height="25" viewBox="0 0 24 25" fill="none" xmlns="http://www.w3.org/2000/svg">
<path d="M13.8462 18.1604V19.066C13.8462 20.5666 12.6063 21.783 11.0769 21.783C9.54753 21.783 8.30771 20.5666 8.30771 19.066V18.1604M13.8462 18.1604H8.30771M13.8462 18.1604H17.1605C17.5136 18.1604 17.691 18.1604 17.8339 18.1131C18.107 18.0227 18.3208 17.8123 18.4129 17.5443C18.4613 17.4035 18.4613 17.2289 18.4613 16.8797C18.4613 16.7269 18.4611 16.6505 18.4489 16.5777C18.4259 16.44 18.3715 16.3095 18.2885 16.1962C18.2447 16.1363 18.189 16.0817 18.0792 15.974L17.7197 15.6212C17.6037 15.5073 17.5385 15.353 17.5385 15.192V11.8208C17.5385 8.31947 14.6456 5.48112 11.0769 5.48113C7.50833 5.48114 4.6154 8.31948 4.6154 11.8208V15.192C4.6154 15.353 4.55009 15.5073 4.43407 15.6212L4.07453 15.9739C3.96441 16.082 3.90928 16.1363 3.8654 16.1962C3.78247 16.3095 3.72753 16.44 3.70451 16.5777C3.69232 16.6505 3.69232 16.7269 3.69232 16.8797C3.69232 17.2289 3.69232 17.4035 3.74074 17.5443C3.83286 17.8122 4.04752 18.0227 4.32063 18.1131C4.46361 18.1604 4.64034 18.1604 4.99345 18.1604H8.30771" stroke="white" stroke-width="2" stroke-linecap="round" stroke-linejoin="round"/>
<ellipse cx="18" cy="6.38679" rx="6" ry="5.88679" fill="#FD4580"/>
</svg>
