<svg width="20" height="21" viewBox="0 0 20 21" fill="none" xmlns="http://www.w3.org/2000/svg">
<path d="M12.4999 14.6667V15.5C12.4999 16.8807 11.3806 18 9.99992 18C8.61921 18 7.49992 16.8807 7.49992 15.5V14.6667M12.4999 14.6667H7.49992M12.4999 14.6667H15.492C15.8108 14.6667 15.9709 14.6667 16.1 14.6231C16.3465 14.54 16.5395 14.3464 16.6226 14.0998C16.6664 13.9702 16.6664 13.8096 16.6664 13.4883C16.6664 13.3477 16.6662 13.2774 16.6552 13.2104C16.6344 13.0837 16.5852 12.9636 16.5104 12.8593C16.4708 12.8043 16.4205 12.754 16.3214 12.6549L15.9968 12.3302C15.8921 12.2255 15.8333 12.0834 15.8333 11.9353V8.83333C15.8333 5.61167 13.2216 2.99999 9.99992 3C6.77826 3.00001 4.16659 5.61168 4.16659 8.83333V11.9354C4.16659 12.0835 4.10762 12.2255 4.00289 12.3302L3.6783 12.6548C3.57888 12.7542 3.52912 12.8042 3.4895 12.8594C3.41463 12.9636 3.36504 13.0837 3.34425 13.2104C3.33325 13.2774 3.33325 13.3477 3.33325 13.4883C3.33325 13.8096 3.33325 13.9702 3.37696 14.0998C3.46013 14.3463 3.65392 14.54 3.90047 14.6231C4.02955 14.6667 4.1891 14.6667 4.50788 14.6667H7.49992" stroke="#6A788E" stroke-width="1.5" stroke-linecap="round" stroke-linejoin="round"/>
</svg>
