<svg width="25" height="25" viewBox="0 0 25 25" fill="none" xmlns="http://www.w3.org/2000/svg">
<rect x="0.5" y="0.5" width="24" height="24" rx="12" fill="#BCFFD7"/>
<rect x="1" y="1" width="23" height="23" rx="11.5" stroke="#1DB158" stroke-opacity="0.5"/>
<path d="M17.8336 9.16675L13.9362 13.1251C13.8662 13.1962 13.8308 13.2318 13.7995 13.2598C13.2932 13.713 12.5277 13.713 12.0215 13.2598C11.9901 13.2318 11.9545 13.1962 11.8845 13.1251C11.8144 13.0539 11.7794 13.0184 11.7481 12.9903C11.2418 12.5372 10.476 12.5372 9.96974 12.9903C9.93848 13.0183 9.90355 13.0538 9.83386 13.1246L7.16667 15.8334M17.8336 9.16675L17.8333 13.1667M17.8336 9.16675H13.8333" stroke="#1DB158" stroke-width="2" stroke-linecap="round" stroke-linejoin="round"/>
</svg>
