<svg width="20" height="21" viewBox="0 0 20 21" fill="none" xmlns="http://www.w3.org/2000/svg">
<path d="M8.58981 11.9102L12.6283 7.87179M16.7594 5.40719L13.3506 16.486C13.0451 17.4789 12.8922 17.9755 12.6287 18.1402C12.4002 18.283 12.1172 18.3068 11.8683 18.2036C11.5813 18.0845 11.3483 17.6194 10.8836 16.69L8.72449 12.3717C8.65075 12.2242 8.61384 12.1508 8.56458 12.0869C8.52087 12.0302 8.47042 11.9791 8.41372 11.9354C8.35126 11.8872 8.27906 11.8511 8.13815 11.7807L3.80994 9.61658C2.88052 9.15187 2.41577 8.9193 2.29668 8.63228C2.19339 8.38337 2.21695 8.10015 2.35975 7.8716C2.5244 7.60807 3.02103 7.45498 4.01421 7.14939L15.093 3.74052C15.8738 3.50027 16.2644 3.38025 16.5281 3.47707C16.7578 3.5614 16.9389 3.74233 17.0233 3.97205C17.12 4.23565 16.9999 4.62601 16.7599 5.40603L16.7594 5.40719Z" stroke="#6A788E" stroke-width="1.5" stroke-linecap="round" stroke-linejoin="round"/>
</svg>
