<svg width="20" height="20" viewBox="0 0 20 20" fill="none" xmlns="http://www.w3.org/2000/svg">
<path d="M2.5 9.1665V13.1667C2.5 14.1001 2.5 14.5666 2.68166 14.9231C2.84144 15.2367 3.09623 15.4919 3.40983 15.6517C3.766 15.8332 4.23249 15.8332 5.16409 15.8332H14.8359C15.7675 15.8332 16.2333 15.8332 16.5895 15.6517C16.9031 15.4919 17.1587 15.2367 17.3185 14.9231C17.5 14.5669 17.5 14.1011 17.5 13.1695V9.1665M2.5 9.1665V7.49984M2.5 9.1665H17.5M2.5 7.49984V6.83333C2.5 5.89991 2.5 5.43285 2.68166 5.07633C2.84144 4.76273 3.09623 4.50795 3.40983 4.34816C3.76635 4.1665 4.23341 4.1665 5.16683 4.1665H14.8335C15.7669 4.1665 16.233 4.1665 16.5895 4.34816C16.9031 4.50795 17.1587 4.76273 17.3185 5.07633C17.5 5.43251 17.5 5.899 17.5 6.8306V7.49984M2.5 7.49984H17.5M5.83333 12.4998H9.16667M17.5 9.1665V7.49984" stroke="#6A788E" stroke-width="1.5" stroke-linecap="round" stroke-linejoin="round"/>
</svg>
