<svg width="21" height="20" viewBox="0 0 21 20" fill="none" xmlns="http://www.w3.org/2000/svg">
<path d="M13 8.33317L9.66663 11.6665L7.99996 9.99984M11.5384 2.88233L12.5558 3.74941C12.8122 3.96786 13.1305 4.09992 13.4662 4.12671L14.7987 4.23291C15.5822 4.29543 16.2045 4.91733 16.267 5.70077L16.3729 7.03353C16.3997 7.36925 16.5322 7.68799 16.7507 7.94433L17.6174 8.96152C18.1272 9.5597 18.1272 10.4396 17.6175 11.0378L16.7508 12.0551C16.5323 12.3115 16.4 12.6303 16.3732 12.9661L16.2666 14.2986C16.204 15.082 15.5827 15.7043 14.7993 15.7669L13.4663 15.8732C13.1305 15.9 12.812 16.0317 12.5556 16.2502L11.5384 17.1173C10.9402 17.627 10.0597 17.6271 9.46155 17.1174L8.4443 16.2502C8.18796 16.0318 7.86938 15.8998 7.53365 15.8731L6.20064 15.7668C5.4172 15.7043 4.79588 15.0822 4.73336 14.2988L4.62675 12.9661C4.59996 12.6304 4.46759 12.3118 4.24915 12.0555L3.38245 11.0378C2.87268 10.4397 2.87244 9.56002 3.38221 8.96184L4.24969 7.94418C4.46814 7.68784 4.59923 7.36926 4.62602 7.03353L4.73263 5.70093C4.79515 4.91749 5.41826 4.29535 6.20171 4.23283L7.53324 4.12663C7.86897 4.09984 8.1877 3.96788 8.44404 3.74943L9.46163 2.88233C10.0598 2.37256 10.9402 2.37256 11.5384 2.88233Z" stroke="#6A788E" stroke-width="1.5" stroke-linecap="round" stroke-linejoin="round"/>
</svg>
